<?xml version="1.0" encoding="UTF-8" standalone="no"?>
<svg
   xmlns:dc="http://purl.org/dc/elements/1.1/"
   xmlns:cc="http://creativecommons.org/ns#"
   xmlns:rdf="http://www.w3.org/1999/02/22-rdf-syntax-ns#"
   xmlns:svg="http://www.w3.org/2000/svg"
   xmlns="http://www.w3.org/2000/svg"
   viewBox="0 0 576 432"
   height="432"
   width="576"
   xml:space="preserve"
   version="1.1"
   id="svg2"><metadata
     id="metadata8"><rdf:RDF><cc:Work
         rdf:about=""><dc:format>image/svg+xml</dc:format><dc:type
           rdf:resource="http://purl.org/dc/dcmitype/StillImage" /></cc:Work></rdf:RDF></metadata><defs
     id="defs6"><clipPath
       id="clipPath20"
       clipPathUnits="userSpaceOnUse"><path
         id="path22"
         d="m 69.84,38.016 332.64,0 0,266.112 -332.64,0 0,-266.112 z" /></clipPath></defs><g
     transform="matrix(1.25,0,0,-1.25,0,432)"
     id="g10"><path
       id="path12"
       style="fill:#ffffff;fill-opacity:1;fill-rule:nonzero;stroke:none"
       d="m 0,0 460.8,0 0,345.6 L 0,345.6 0,0 Z" /><path
       id="path14"
       style="fill:#ffffff;fill-opacity:1;fill-rule:nonzero;stroke:none"
       d="m 69.84,38.016 332.64,0 0,266.112 -332.64,0 0,-266.112 z" /><g
       id="g16"><g
         clip-path="url(#clipPath20)"
         id="g18"><path
           id="path24"
           style="fill:#38598c;fill-opacity:1;fill-rule:nonzero;stroke:none"
           d="m 69.84,38.016 0,66.528 66.528,0 0,-66.528 -66.528,0 z" /><path
           id="path26"
           style="fill:#e7e419;fill-opacity:1;fill-rule:nonzero;stroke:none"
           d="m 136.368,38.016 0,66.528 66.528,0 0,-66.528 -66.528,0 z" /><path
           id="path28"
           style="fill:#fbe723;fill-opacity:1;fill-rule:nonzero;stroke:none"
           d="m 202.896,38.016 0,66.528 66.528,0 0,-66.528 -66.528,0 z" /><path
           id="path30"
           style="fill:#fbe723;fill-opacity:1;fill-rule:nonzero;stroke:none"
           d="m 269.424,38.016 0,66.528 66.528,0 0,-66.528 -66.528,0 z" /><path
           id="path32"
           style="fill:#ece51b;fill-opacity:1;fill-rule:nonzero;stroke:none"
           d="m 335.952,38.016 0,66.528 66.528,0 0,-66.528 -66.528,0 z" /><path
           id="path34"
           style="fill:#2d708e;fill-opacity:1;fill-rule:nonzero;stroke:none"
           d="m 69.84,104.544 0,66.528 66.528,0 0,-66.528 -66.528,0 z" /><path
           id="path36"
           style="fill:#dfe318;fill-opacity:1;fill-rule:nonzero;stroke:none"
           d="m 136.368,104.544 0,66.528 66.528,0 0,-66.528 -66.528,0 z" /><path
           id="path38"
           style="fill:#fbe723;fill-opacity:1;fill-rule:nonzero;stroke:none"
           d="m 202.896,104.544 0,66.528 66.528,0 0,-66.528 -66.528,0 z" /><path
           id="path40"
           style="fill:#fde725;fill-opacity:1;fill-rule:nonzero;stroke:none"
           d="m 269.424,104.544 0,66.528 66.528,0 0,-66.528 -66.528,0 z" /><path
           id="path42"
           style="fill:#f4e61e;fill-opacity:1;fill-rule:nonzero;stroke:none"
           d="m 335.952,104.544 0,66.528 66.528,0 0,-66.528 -66.528,0 z" /><path
           id="path44"
           style="fill:#440256;fill-opacity:1;fill-rule:nonzero;stroke:none"
           d="m 69.84,171.072 0,66.528 66.528,0 0,-66.528 -66.528,0 z" /><path
           id="path46"
           style="fill:#b8de29;fill-opacity:1;fill-rule:nonzero;stroke:none"
           d="m 136.368,171.072 0,66.528 66.528,0 0,-66.528 -66.528,0 z" /><path
           id="path48"
           style="fill:#e7e419;fill-opacity:1;fill-rule:nonzero;stroke:none"
           d="m 202.896,171.072 0,66.528 66.528,0 0,-66.528 -66.528,0 z" /><path
           id="path50"
           style="fill:#f1e51d;fill-opacity:1;fill-rule:nonzero;stroke:none"
           d="m 269.424,171.072 0,66.528 66.528,0 0,-66.528 -66.528,0 z" /><path
           id="path52"
           style="fill:#eae51a;fill-opacity:1;fill-rule:nonzero;stroke:none"
           d="m 335.952,171.072 0,66.528 66.528,0 0,-66.528 -66.528,0 z" /><path
           id="path54"
           style="fill:#440154;fill-opacity:1;fill-rule:nonzero;stroke:none"
           d="m 69.84,237.6 0,66.528 66.528,0 0,-66.528 -66.528,0 z" /><path
           id="path56"
           style="fill:#bade28;fill-opacity:1;fill-rule:nonzero;stroke:none"
           d="m 136.368,237.6 0,66.528 66.528,0 0,-66.528 -66.528,0 z" /><path
           id="path58"
           style="fill:#efe51c;fill-opacity:1;fill-rule:nonzero;stroke:none"
           d="m 202.896,237.6 0,66.528 66.528,0 0,-66.528 -66.528,0 z" /><path
           id="path60"
           style="fill:#f6e620;fill-opacity:1;fill-rule:nonzero;stroke:none"
           d="m 269.424,237.6 0,66.528 66.528,0 0,-66.528 -66.528,0 z" /><path
           id="path62"
           style="fill:#f4e61e;fill-opacity:1;fill-rule:nonzero;stroke:none"
           d="m 335.952,237.6 0,66.528 66.528,0 0,-66.528 -66.528,0 z" /></g></g><g
       id="g64"><path
         id="path66"
         style="fill:#000000;fill-opacity:1;fill-rule:nonzero;stroke:#000000;stroke-width:0.80000001;stroke-linecap:butt;stroke-linejoin:round;stroke-miterlimit:10;stroke-dasharray:none;stroke-opacity:1"
         d="m 103.104,38.016 0,-3.5" /><text
         id="text68"
         style="font-variant:normal;font-weight:normal;font-size:10px;font-family:'DejaVu Sans';-inkscape-font-specification:DejaVuSans;writing-mode:lr-tb;fill:#000000;fill-opacity:1;fill-rule:nonzero;stroke:none"
         transform="matrix(1,0,0,-1,99.924312,23.42225)"><tspan
           id="tspan70"
           y="0"
           x="0">1</tspan></text>
<path
         id="path72"
         style="fill:#000000;fill-opacity:1;fill-rule:nonzero;stroke:#000000;stroke-width:0.80000001;stroke-linecap:butt;stroke-linejoin:round;stroke-miterlimit:10;stroke-dasharray:none;stroke-opacity:1"
         d="m 169.632,38.016 0,-3.5" /><text
         id="text74"
         style="font-variant:normal;font-weight:normal;font-size:10px;font-family:'DejaVu Sans';-inkscape-font-specification:DejaVuSans;writing-mode:lr-tb;fill:#000000;fill-opacity:1;fill-rule:nonzero;stroke:none"
         transform="matrix(1,0,0,-1,161.67887,23.42225)"><tspan
           id="tspan76"
           y="0"
           x="0 6.3600001 9.54">0.1</tspan></text>
<path
         id="path78"
         style="fill:#000000;fill-opacity:1;fill-rule:nonzero;stroke:#000000;stroke-width:0.80000001;stroke-linecap:butt;stroke-linejoin:round;stroke-miterlimit:10;stroke-dasharray:none;stroke-opacity:1"
         d="m 236.16,38.016 0,-3.5" /><text
         id="text80"
         style="font-variant:normal;font-weight:normal;font-size:10px;font-family:'DejaVu Sans';-inkscape-font-specification:DejaVuSans;writing-mode:lr-tb;fill:#000000;fill-opacity:1;fill-rule:nonzero;stroke:none"
         transform="matrix(1,0,0,-1,225.02719,23.42225)"><tspan
           id="tspan82"
           y="0"
           x="0 6.3600001 9.54 15.9">0.01</tspan></text>
<path
         id="path84"
         style="fill:#000000;fill-opacity:1;fill-rule:nonzero;stroke:#000000;stroke-width:0.80000001;stroke-linecap:butt;stroke-linejoin:round;stroke-miterlimit:10;stroke-dasharray:none;stroke-opacity:1"
         d="m 302.688,38.016 0,-3.5" /><text
         id="text86"
         style="font-variant:normal;font-weight:normal;font-size:10px;font-family:'DejaVu Sans';-inkscape-font-specification:DejaVuSans;writing-mode:lr-tb;fill:#000000;fill-opacity:1;fill-rule:nonzero;stroke:none"
         transform="matrix(1,0,0,-1,288.3755,23.42225)"><tspan
           id="tspan88"
           y="0"
           x="0 6.3600001 9.54 15.9 22.26">0.001</tspan></text>
<path
         id="path90"
         style="fill:#000000;fill-opacity:1;fill-rule:nonzero;stroke:#000000;stroke-width:0.80000001;stroke-linecap:butt;stroke-linejoin:round;stroke-miterlimit:10;stroke-dasharray:none;stroke-opacity:1"
         d="m 369.216,38.016 0,-3.5" /><text
         id="text92"
         style="font-variant:normal;font-weight:normal;font-size:10px;font-family:'DejaVu Sans';-inkscape-font-specification:DejaVuSans;writing-mode:lr-tb;fill:#000000;fill-opacity:1;fill-rule:nonzero;stroke:none"
         transform="matrix(1,0,0,-1,351.72381,23.42225)"><tspan
           id="tspan94"
           y="0"
           x="0 6.3600001 9.54 15.9 22.26 28.620001">0.0001</tspan></text>
<text
         id="text96"
         style="font-variant:normal;font-weight:normal;font-size:10px;font-family:'DejaVu Sans';-inkscape-font-specification:DejaVuSans;writing-mode:lr-tb;fill:#000000;fill-opacity:1;fill-rule:nonzero;stroke:none"
         transform="matrix(1,0,0,-1,203.01156,9.750375)"><tspan
           id="tspan98"
           y="0"
           x="0 2.78 8.9300003 15.06 19.17 25.51 28.290001 34.630001 40.98 45.98 50.09 56.220001 60.139999">learning_rate</tspan></text>
<path
         id="path100"
         style="fill:#000000;fill-opacity:1;fill-rule:nonzero;stroke:#000000;stroke-width:0.80000001;stroke-linecap:butt;stroke-linejoin:round;stroke-miterlimit:10;stroke-dasharray:none;stroke-opacity:1"
         d="m 69.84,71.28 -3.5,0" /><text
         id="text102"
         style="font-variant:normal;font-weight:normal;font-size:10px;font-family:'DejaVu Sans';-inkscape-font-specification:DejaVuSans;writing-mode:lr-tb;fill:#000000;fill-opacity:1;fill-rule:nonzero;stroke:none"
         transform="matrix(1,0,0,-1,31.465,67.483125)"><tspan
           id="tspan104"
           y="0"
           x="0 6.3600001 9.54 15.46 18.639999 25">1 x 50</tspan></text>
<path
         id="path106"
         style="fill:#000000;fill-opacity:1;fill-rule:nonzero;stroke:#000000;stroke-width:0.80000001;stroke-linecap:butt;stroke-linejoin:round;stroke-miterlimit:10;stroke-dasharray:none;stroke-opacity:1"
         d="m 69.84,137.808 -3.5,0" /><text
         id="text108"
         style="font-variant:normal;font-weight:normal;font-size:10px;font-family:'DejaVu Sans';-inkscape-font-specification:DejaVuSans;writing-mode:lr-tb;fill:#000000;fill-opacity:1;fill-rule:nonzero;stroke:none"
         transform="matrix(1,0,0,-1,25.105625,134.01112)"><tspan
           id="tspan110"
           y="0"
           x="0 6.3600001 9.54 15.46 18.639999 25 31.360001">1 x 100</tspan></text>
<path
         id="path112"
         style="fill:#000000;fill-opacity:1;fill-rule:nonzero;stroke:#000000;stroke-width:0.80000001;stroke-linecap:butt;stroke-linejoin:round;stroke-miterlimit:10;stroke-dasharray:none;stroke-opacity:1"
         d="m 69.84,204.336 -3.5,0" /><text
         id="text114"
         style="font-variant:normal;font-weight:normal;font-size:10px;font-family:'DejaVu Sans';-inkscape-font-specification:DejaVuSans;writing-mode:lr-tb;fill:#000000;fill-opacity:1;fill-rule:nonzero;stroke:none"
         transform="matrix(1,0,0,-1,31.465,200.53912)"><tspan
           id="tspan116"
           y="0"
           x="0 6.3600001 9.54 15.46 18.639999 25">2 x 50</tspan></text>
<path
         id="path118"
         style="fill:#000000;fill-opacity:1;fill-rule:nonzero;stroke:#000000;stroke-width:0.80000001;stroke-linecap:butt;stroke-linejoin:round;stroke-miterlimit:10;stroke-dasharray:none;stroke-opacity:1"
         d="m 69.84,270.864 -3.5,0" /><text
         id="text120"
         style="font-variant:normal;font-weight:normal;font-size:10px;font-family:'DejaVu Sans';-inkscape-font-specification:DejaVuSans;writing-mode:lr-tb;fill:#000000;fill-opacity:1;fill-rule:nonzero;stroke:none"
         transform="matrix(1,0,0,-1,25.105625,267.06712)"><tspan
           id="tspan122"
           y="0"
           x="0 6.3600001 9.54 15.46 18.639999 25 31.360001">2 x 100</tspan></text>
<text
         id="text124"
         style="font-variant:normal;font-weight:normal;font-size:10px;font-family:'DejaVu Sans';-inkscape-font-specification:DejaVuSans;writing-mode:lr-tb;fill:#000000;fill-opacity:1;fill-rule:nonzero;stroke:none"
         transform="matrix(0,1,1,0,18.74625,124.05637)"><tspan
           id="tspan126"
           y="0"
           x="0 6.3400002 9.1199999 15.47 21.82 27.969999 34.310001 39.310001 42.09 48.220001 54.139999 60.290001 64.400002 69.400002 74.610001 77.389999 82.639999 88.790001">hidden_layer_sizes</tspan></text>
<path
         id="path128"
         style="fill:none;stroke:#000000;stroke-width:0.80000001;stroke-linecap:square;stroke-linejoin:miter;stroke-miterlimit:10;stroke-dasharray:none;stroke-opacity:1"
         d="m 69.84,38.016 0,266.112" /><path
         id="path130"
         style="fill:none;stroke:#000000;stroke-width:0.80000001;stroke-linecap:square;stroke-linejoin:miter;stroke-miterlimit:10;stroke-dasharray:none;stroke-opacity:1"
         d="m 402.48,38.016 0,266.112" /><path
         id="path132"
         style="fill:none;stroke:#000000;stroke-width:0.80000001;stroke-linecap:square;stroke-linejoin:miter;stroke-miterlimit:10;stroke-dasharray:none;stroke-opacity:1"
         d="m 69.84,38.016 332.64,0" /><path
         id="path134"
         style="fill:none;stroke:#000000;stroke-width:0.80000001;stroke-linecap:square;stroke-linejoin:miter;stroke-miterlimit:10;stroke-dasharray:none;stroke-opacity:1"
         d="m 69.84,304.128 332.64,0" /><text
         id="text136"
         style="font-variant:normal;font-weight:normal;font-size:10px;font-family:'DejaVu Sans';-inkscape-font-specification:DejaVuSans;writing-mode:lr-tb;fill:#ffffff;fill-opacity:1;fill-rule:nonzero;stroke:none"
         transform="matrix(1,0,0,-1,88.7915,68.522187)"><tspan
           id="tspan138"
           y="0"
           x="0 6.3600001 9.54 15.9 22.26">0.285</tspan></text>
<text
         id="text140"
         style="font-variant:normal;font-weight:normal;font-size:10px;font-family:'DejaVu Sans';-inkscape-font-specification:DejaVuSans;writing-mode:lr-tb;fill:#000000;fill-opacity:1;fill-rule:nonzero;stroke:none"
         transform="matrix(1,0,0,-1,155.3195,68.522187)"><tspan
           id="tspan142"
           y="0"
           x="0 6.3600001 9.54 15.9 22.26">0.859</tspan></text>
<text
         id="text144"
         style="font-variant:normal;font-weight:normal;font-size:10px;font-family:'DejaVu Sans';-inkscape-font-specification:DejaVuSans;writing-mode:lr-tb;fill:#000000;fill-opacity:1;fill-rule:nonzero;stroke:none"
         transform="matrix(1,0,0,-1,221.8475,68.522187)"><tspan
           id="tspan146"
           y="0"
           x="0 6.3600001 9.54 15.9 22.26">0.887</tspan></text>
<text
         id="text148"
         style="font-variant:normal;font-weight:normal;font-size:10px;font-family:'DejaVu Sans';-inkscape-font-specification:DejaVuSans;writing-mode:lr-tb;fill:#000000;fill-opacity:1;fill-rule:nonzero;stroke:none"
         transform="matrix(1,0,0,-1,288.3755,68.522187)"><tspan
           id="tspan150"
           y="0"
           x="0 6.3600001 9.54 15.9 22.26">0.885</tspan></text>
<text
         id="text152"
         style="font-variant:normal;font-weight:normal;font-size:10px;font-family:'DejaVu Sans';-inkscape-font-specification:DejaVuSans;writing-mode:lr-tb;fill:#000000;fill-opacity:1;fill-rule:nonzero;stroke:none"
         transform="matrix(1,0,0,-1,354.9035,68.522187)"><tspan
           id="tspan154"
           y="0"
           x="0 6.3600001 9.54 15.9 22.26">0.865</tspan></text>
<text
         id="text156"
         style="font-variant:normal;font-weight:normal;font-size:10px;font-family:'DejaVu Sans';-inkscape-font-specification:DejaVuSans;writing-mode:lr-tb;fill:#ffffff;fill-opacity:1;fill-rule:nonzero;stroke:none"
         transform="matrix(1,0,0,-1,88.7915,135.05019)"><tspan
           id="tspan158"
           y="0"
           x="0 6.3600001 9.54 15.9 22.26">0.362</tspan></text>
<text
         id="text160"
         style="font-variant:normal;font-weight:normal;font-size:10px;font-family:'DejaVu Sans';-inkscape-font-specification:DejaVuSans;writing-mode:lr-tb;fill:#000000;fill-opacity:1;fill-rule:nonzero;stroke:none"
         transform="matrix(1,0,0,-1,155.3195,135.05019)"><tspan
           id="tspan162"
           y="0"
           x="0 6.3600001 9.54 15.9 22.26">0.850</tspan></text>
<text
         id="text164"
         style="font-variant:normal;font-weight:normal;font-size:10px;font-family:'DejaVu Sans';-inkscape-font-specification:DejaVuSans;writing-mode:lr-tb;fill:#000000;fill-opacity:1;fill-rule:nonzero;stroke:none"
         transform="matrix(1,0,0,-1,221.8475,135.05019)"><tspan
           id="tspan166"
           y="0"
           x="0 6.3600001 9.54 15.9 22.26">0.887</tspan></text>
<text
         id="text168"
         style="font-variant:normal;font-weight:normal;font-size:10px;font-family:'DejaVu Sans';-inkscape-font-specification:DejaVuSans;writing-mode:lr-tb;fill:#000000;fill-opacity:1;fill-rule:nonzero;stroke:none"
         transform="matrix(1,0,0,-1,288.3755,135.05019)"><tspan
           id="tspan170"
           y="0"
           x="0 6.3600001 9.54 15.9 22.26">0.891</tspan></text>
<text
         id="text172"
         style="font-variant:normal;font-weight:normal;font-size:10px;font-family:'DejaVu Sans';-inkscape-font-specification:DejaVuSans;writing-mode:lr-tb;fill:#000000;fill-opacity:1;fill-rule:nonzero;stroke:none"
         transform="matrix(1,0,0,-1,354.9035,135.05019)"><tspan
           id="tspan174"
           y="0"
           x="0 6.3600001 9.54 15.9 22.26">0.876</tspan></text>
<text
         id="text176"
         style="font-variant:normal;font-weight:normal;font-size:10px;font-family:'DejaVu Sans';-inkscape-font-specification:DejaVuSans;writing-mode:lr-tb;fill:#ffffff;fill-opacity:1;fill-rule:nonzero;stroke:none"
         transform="matrix(1,0,0,-1,88.7915,201.57819)"><tspan
           id="tspan178"
           y="0"
           x="0 6.3600001 9.54 15.9 22.26">0.061</tspan></text>
<text
         id="text180"
         style="font-variant:normal;font-weight:normal;font-size:10px;font-family:'DejaVu Sans';-inkscape-font-specification:DejaVuSans;writing-mode:lr-tb;fill:#000000;fill-opacity:1;fill-rule:nonzero;stroke:none"
         transform="matrix(1,0,0,-1,155.3195,201.57819)"><tspan
           id="tspan182"
           y="0"
           x="0 6.3600001 9.54 15.9 22.26">0.802</tspan></text>
<text
         id="text184"
         style="font-variant:normal;font-weight:normal;font-size:10px;font-family:'DejaVu Sans';-inkscape-font-specification:DejaVuSans;writing-mode:lr-tb;fill:#000000;fill-opacity:1;fill-rule:nonzero;stroke:none"
         transform="matrix(1,0,0,-1,221.8475,201.57819)"><tspan
           id="tspan186"
           y="0"
           x="0 6.3600001 9.54 15.9 22.26">0.861</tspan></text>
<text
         id="text188"
         style="font-variant:normal;font-weight:normal;font-size:10px;font-family:'DejaVu Sans';-inkscape-font-specification:DejaVuSans;writing-mode:lr-tb;fill:#000000;fill-opacity:1;fill-rule:nonzero;stroke:none"
         transform="matrix(1,0,0,-1,288.3755,201.57819)"><tspan
           id="tspan190"
           y="0"
           x="0 6.3600001 9.54 15.9 22.26">0.873</tspan></text>
<text
         id="text192"
         style="font-variant:normal;font-weight:normal;font-size:10px;font-family:'DejaVu Sans';-inkscape-font-specification:DejaVuSans;writing-mode:lr-tb;fill:#000000;fill-opacity:1;fill-rule:nonzero;stroke:none"
         transform="matrix(1,0,0,-1,354.9035,201.57819)"><tspan
           id="tspan194"
           y="0"
           x="0 6.3600001 9.54 15.9 22.26">0.863</tspan></text>
<text
         id="text196"
         style="font-variant:normal;font-weight:normal;font-size:10px;font-family:'DejaVu Sans';-inkscape-font-specification:DejaVuSans;writing-mode:lr-tb;fill:#ffffff;fill-opacity:1;fill-rule:nonzero;stroke:none"
         transform="matrix(1,0,0,-1,88.7915,268.10619)"><tspan
           id="tspan198"
           y="0"
           x="0 6.3600001 9.54 15.9 22.26">0.057</tspan></text>
<text
         id="text200"
         style="font-variant:normal;font-weight:normal;font-size:10px;font-family:'DejaVu Sans';-inkscape-font-specification:DejaVuSans;writing-mode:lr-tb;fill:#000000;fill-opacity:1;fill-rule:nonzero;stroke:none"
         transform="matrix(1,0,0,-1,155.3195,268.10619)"><tspan
           id="tspan202"
           y="0"
           x="0 6.3600001 9.54 15.9 22.26">0.805</tspan></text>
<text
         id="text204"
         style="font-variant:normal;font-weight:normal;font-size:10px;font-family:'DejaVu Sans';-inkscape-font-specification:DejaVuSans;writing-mode:lr-tb;fill:#000000;fill-opacity:1;fill-rule:nonzero;stroke:none"
         transform="matrix(1,0,0,-1,221.8475,268.10619)"><tspan
           id="tspan206"
           y="0"
           x="0 6.3600001 9.54 15.9 22.26">0.871</tspan></text>
<text
         id="text208"
         style="font-variant:normal;font-weight:normal;font-size:10px;font-family:'DejaVu Sans';-inkscape-font-specification:DejaVuSans;writing-mode:lr-tb;fill:#000000;fill-opacity:1;fill-rule:nonzero;stroke:none"
         transform="matrix(1,0,0,-1,288.3755,268.10619)"><tspan
           id="tspan210"
           y="0"
           x="0 6.3600001 9.54 15.9 22.26">0.878</tspan></text>
<text
         id="text212"
         style="font-variant:normal;font-weight:normal;font-size:10px;font-family:'DejaVu Sans';-inkscape-font-specification:DejaVuSans;writing-mode:lr-tb;fill:#000000;fill-opacity:1;fill-rule:nonzero;stroke:none"
         transform="matrix(1,0,0,-1,354.9035,268.10619)"><tspan
           id="tspan214"
           y="0"
           x="0 6.3600001 9.54 15.9 22.26">0.875</tspan></text>
</g></g></svg>